<svg width="50" height="50" viewBox="0 0 50 50" fill="none" xmlns="http://www.w3.org/2000/svg">
<g clip-path="url(#clip0_66_1065)">
<path d="M32.8127 50.5208C21.8752 50.5208 11.1981 50.5208 0.520996 50.5208C0.520996 33.8542 0.520996 17.1875 0.520996 0.520828C17.1877 0.520828 33.8543 0.520828 50.521 0.520828C50.521 17.1875 50.521 33.8542 50.521 50.5208C44.705 50.5208 38.889 50.5208 32.8127 50.5208ZM24.3797 15.268C22.8489 12.4318 21.3844 9.55655 19.7474 6.78306C19.2504 5.94113 18.3428 4.89924 17.5091 4.78542C15.4139 4.49939 13.2536 4.69084 10.7077 4.69084C11.5747 6.37373 12.2428 7.71331 12.9486 9.03273C15.426 13.664 17.9164 18.2883 20.22 23.2372C15.2982 25.8008 12.9811 29.6647 12.9022 35.4032C12.8262 40.9357 17.4814 46.6223 22.5926 47.299C29.7432 48.2455 35.0446 46.4101 37.3476 39.2838C39.5305 32.529 38.1108 27.4093 30.7156 22.5547C33.8689 16.718 37.0223 10.8814 40.3687 4.68731C38.251 4.68731 36.5392 4.8029 34.8501 4.65632C32.9877 4.49469 32.0082 5.09902 31.1464 6.88508C29.5065 10.2835 27.4306 13.4715 25.248 16.6024C25.0115 16.2694 24.7749 15.9365 24.3797 15.268Z" fill="white"/>
<path d="M30.6329 22.9381C38.1109 27.4093 39.5305 32.529 37.3476 39.2838C35.0447 46.4101 29.7433 48.2455 22.5927 47.2989C17.4814 46.6223 12.8263 40.9357 12.9023 35.4032C12.9811 29.6647 15.2982 25.8008 20.4168 23.062C20.6136 22.8869 20.8198 22.8317 21.0151 22.8576C21.9523 22.7496 22.6942 22.6157 23.6646 22.4617C26.1397 22.6071 28.3863 22.7726 30.6329 22.9381ZM26.5884 24.618C18.8141 24.1201 13.0969 31.181 15.6104 38.1762C17.3685 43.0689 22.1671 46.0155 27.0172 45.1805C32.3078 44.2697 35.8842 40.1294 35.8927 34.9058C35.9012 29.6614 32.5584 25.8295 26.5884 24.618Z" fill="#AF8A77"/>
<path d="M30.6739 22.7464C28.3859 22.7726 26.1393 22.6071 23.6826 22.2662C24.1602 20.3095 24.8478 18.5282 25.5354 16.7469C27.4303 13.4715 29.5062 10.2835 31.1461 6.88508C32.0079 5.09903 32.9874 4.49469 34.8498 4.65632C36.5389 4.8029 38.2507 4.68732 40.3684 4.68732C37.0219 10.8814 33.8686 16.718 30.6739 22.7464Z" fill="#FF754C"/>
<path d="M20.8196 22.8317C20.8196 22.8317 20.6133 22.8869 20.5075 22.901C17.9162 18.2883 15.4259 13.664 12.9485 9.03273C12.2427 7.71331 11.5745 6.37373 10.7075 4.69084C13.2534 4.69084 15.4138 4.49939 17.5089 4.78543C18.3427 4.89925 19.2503 5.94114 19.7472 6.78306C21.3842 9.55655 22.8488 12.4318 24.3341 15.5663C23.1323 18.1869 21.976 20.5093 20.8196 22.8317Z" fill="#E64A19"/>
<path d="M21.0151 22.8576C21.9762 20.5093 23.1325 18.1869 24.4136 15.7341C24.7749 15.9365 25.0115 16.2695 25.3919 16.6746C24.8481 18.5282 24.1605 20.3095 23.4545 22.2863C22.6942 22.6157 21.9523 22.7496 21.0151 22.8576Z" fill="#CC3F19"/>
<path d="M26.8003 24.6723C32.5581 25.8295 35.901 29.6614 35.8924 34.9058C35.884 40.1294 32.3075 44.2697 27.017 45.1805C22.1668 46.0155 17.3682 43.0689 15.6101 38.1762C13.0966 31.181 18.8138 24.1201 26.8003 24.6723ZM24.748 40.1018C26.9098 40.0881 29.0731 40.1122 31.2322 40.0291C31.6697 40.0123 32.2904 39.683 32.4557 39.326C32.5804 39.0566 32.1998 38.4326 31.8951 38.1052C30.2935 36.3842 30.2416 33.3629 31.7984 31.7466C32.1203 31.4124 32.5705 30.8755 32.485 30.5621C32.3896 30.2126 31.7538 29.7868 31.3475 29.7807C27.4578 29.7231 23.5652 29.682 19.6775 29.7859C18.4306 29.8192 17.9651 30.5244 19.017 31.6406C20.8348 33.5695 20.8401 36.2738 19.1323 38.1146C18.8306 38.4399 18.4643 39.075 18.5935 39.3398C18.7674 39.6963 19.3822 40.0025 19.8273 40.0316C21.2918 40.1276 22.7652 40.0888 24.748 40.1018Z" fill="#CDB0A0"/>
<path d="M24.4919 40.1018C22.7655 40.0888 21.2921 40.1276 19.8276 40.0316C19.3825 40.0025 18.7677 39.6963 18.5938 39.3398C18.4646 39.0749 18.8308 38.4399 19.1326 38.1146C20.8404 36.2738 20.835 33.5695 19.0173 31.6406C17.9654 30.5244 18.4309 29.8192 19.6778 29.7859C23.5655 29.682 27.4581 29.7231 31.3477 29.7807C31.7541 29.7868 32.3898 30.2126 32.4853 30.5621C32.5708 30.8755 32.1206 31.4124 31.7987 31.7466C30.2419 33.3629 30.2938 36.3842 31.8953 38.1052C32.2001 38.4326 32.5807 39.0566 32.4559 39.326C32.2907 39.683 31.67 40.0123 31.2325 40.0291C29.0733 40.1121 26.9101 40.0881 24.4919 40.1018ZM23.6328 37.7631C23.8546 36.0698 24.1096 34.3793 24.2517 32.6794C24.2675 32.4906 23.6588 32.1306 23.3047 32.0755C23.099 32.0435 22.5969 32.4824 22.6147 32.6734C22.7733 34.3738 23.0182 36.0661 23.6328 37.7631ZM28.6318 33.7854C28.2784 33.2005 27.9251 32.6155 27.5717 32.0306C27.2397 32.6374 26.5878 33.2734 26.64 33.845C26.7607 35.167 27.2224 36.4579 27.5458 37.7614C27.9109 36.5832 28.2761 35.405 28.6318 33.7854Z" fill="#AF8A77"/>
<path d="M23.4348 37.762C23.0177 36.0661 22.7728 34.3738 22.6142 32.6734C22.5964 32.4824 23.0985 32.0435 23.3042 32.0755C23.6583 32.1306 24.267 32.4906 24.2512 32.6794C24.1091 34.3793 23.8542 36.0698 23.4348 37.762Z" fill="#CEB1A1"/>
<path d="M28.6362 34.0061C28.2757 35.405 27.9106 36.5832 27.5454 37.7614C27.222 36.4579 26.7604 35.167 26.6397 33.8451C26.5875 33.2734 27.2393 32.6374 27.5714 32.0306C27.9247 32.6156 28.2781 33.2005 28.6362 34.0061Z" fill="#CEB1A1"/>
</g>
<defs>
<clipPath id="clip0_66_1065">
<rect width="50" height="50" fill="white"/>
</clipPath>
</defs>
</svg>
