<svg width="50" height="50" viewBox="0 0 50 50" fill="none" xmlns="http://www.w3.org/2000/svg">
<g clip-path="url(#clip0_72_705)">
<path d="M32.8127 50.5208C21.8752 50.5208 11.1981 50.5208 0.520996 50.5208C0.520996 33.8542 0.520996 17.1875 0.520996 0.520844C17.1877 0.520844 33.8543 0.520844 50.521 0.520844C50.521 17.1875 50.521 33.8542 50.521 50.5208C44.705 50.5208 38.889 50.5208 32.8127 50.5208ZM24.3805 15.2685C22.8492 12.4325 21.3841 9.55734 19.7468 6.78391C19.2496 5.94183 18.3425 4.89917 17.5089 4.78533C15.4136 4.49918 13.253 4.6907 10.7074 4.6907C11.574 6.37294 12.2421 7.71264 12.948 9.03214C15.4255 13.6635 17.916 18.2879 20.2312 23.2463C18.3053 24.9967 15.7731 26.4054 14.5598 28.5577C9.65984 37.2498 15.8256 47.7097 25.6372 47.5547C33.7849 47.426 40.1848 39.8952 37.5653 30.8566C36.4246 26.9207 33.6181 24.6274 30.3543 22.506C33.662 16.6928 36.9696 10.8795 40.4929 4.68745C38.22 4.68745 36.504 4.79533 34.8077 4.65842C32.9514 4.5086 31.9859 5.13749 31.132 6.90974C29.4986 10.2996 27.4282 13.4789 25.2507 16.6022C25.0138 16.2694 24.7769 15.9366 24.3805 15.2685Z" fill="white"/>
<path d="M30.2086 22.8304C33.618 24.6274 36.4245 26.9207 37.5652 30.8566C40.1847 39.8952 33.7848 47.426 25.6371 47.5547C15.8255 47.7097 9.65974 37.2498 14.5597 28.5577C15.773 26.4054 18.3052 24.9967 20.4251 23.0726C20.619 22.8989 20.826 22.8306 21.0188 22.865C21.8035 22.7335 22.3952 22.5676 23.1529 22.466C25.6154 22.6303 27.912 22.7304 30.2086 22.8304ZM27.5206 24.6011C26.7435 24.5614 25.9658 24.4776 25.1895 24.4893C21.0534 24.5513 17.2818 27.1565 15.7915 31.1177C14.2397 35.2425 15.1016 38.987 18.0453 42.1868C20.8307 45.2145 25.4845 46.1549 29.3029 44.6411C33.4805 42.9848 36.0249 39.0663 35.9328 34.4305C35.8441 29.9622 32.8874 26.367 27.5206 24.6011Z" fill="#9FA8DA"/>
<path d="M30.2813 22.6682C27.9119 22.7304 25.6154 22.6303 23.2134 22.3029C23.9183 20.2989 24.7286 18.5222 25.5389 16.7456C27.428 13.4789 29.4984 10.2996 31.1318 6.90974C31.9857 5.13748 32.9512 4.5086 34.8075 4.65842C36.5038 4.79533 38.2198 4.68745 40.4927 4.68745C36.9694 10.8795 33.6618 16.6928 30.2813 22.6682Z" fill="#FF754C"/>
<path d="M20.8258 22.8306C20.8258 22.8306 20.6187 22.8989 20.51 22.9069C17.9157 18.2878 15.4252 13.6635 12.9477 9.03212C12.2418 7.71262 11.5737 6.37291 10.707 4.69068C13.2526 4.69068 15.4132 4.49916 17.5086 4.78531C18.3422 4.89915 19.2493 5.9418 19.7464 6.78388C21.3838 9.55731 22.8489 12.4324 24.3251 15.5565C23.122 18.1732 21.9739 20.5019 20.8258 22.8306Z" fill="#E64A19"/>
<path d="M21.0186 22.865C21.9739 20.5019 23.122 18.1732 24.4049 15.7242C24.7766 15.9366 25.0134 16.2694 25.3945 16.6739C24.7284 18.5222 23.9181 20.2989 23.0473 22.2386C22.395 22.5676 21.8032 22.7335 21.0186 22.865Z" fill="#CB3F19"/>
<path d="M27.7302 24.6565C32.8872 26.3669 35.8439 29.9622 35.9327 34.4305C36.0248 39.0663 33.4804 42.9848 29.3027 44.6411C25.4844 46.1548 20.8305 45.2145 18.0452 42.1868C15.1015 38.987 14.2396 35.2425 15.7914 31.1177C17.2816 27.1565 21.0532 24.5513 25.1893 24.4893C25.9657 24.4776 26.7434 24.5614 27.7302 24.6565ZM20.6916 30.09C20.8029 30.6011 20.7407 31.2939 21.0542 31.5933C22.9028 33.3585 22.9638 36.3959 21.1433 38.1348C20.8285 38.4355 20.4636 39.0723 20.5862 39.3453C20.7449 39.6985 21.3644 40.0326 21.7949 40.0449C24.2141 40.114 26.6375 40.1271 29.0561 40.0523C29.5617 40.0367 30.0533 39.5714 30.5513 39.3133C30.2389 38.8709 29.9927 38.3561 29.6022 37.9992C28.2605 36.7731 28.2552 33.0194 29.5947 31.796C29.9859 31.4386 30.2367 30.9275 30.5519 30.4868C29.97 30.2234 29.3911 29.7419 28.8059 29.7342C26.2181 29.7003 23.6285 29.8026 20.6916 30.09Z" fill="#C4C9E9"/>
<path d="M20.8656 29.9728C23.6286 29.8026 26.2182 29.7003 28.806 29.7342C29.3912 29.7419 29.9701 30.2234 30.552 30.4868C30.2368 30.9274 29.986 31.4386 29.5948 31.796C28.2553 33.0194 28.2606 36.7731 29.6023 37.9992C29.9928 38.3561 30.239 38.8709 30.5514 39.3133C30.0534 39.5714 29.5618 40.0367 29.0563 40.0523C26.6376 40.1271 24.2142 40.1139 21.795 40.0449C21.3645 40.0326 20.745 39.6985 20.5863 39.3453C20.4637 39.0723 20.8286 38.4355 21.1434 38.1348C22.9639 36.3959 22.9029 33.3585 21.0543 31.5933C20.7408 31.2939 20.803 30.6011 20.8656 29.9728ZM25.3155 31.9384C25.0905 33.7036 24.8355 35.4662 24.6876 37.2378C24.6729 37.4137 25.2976 37.7616 25.6534 37.8061C25.8752 37.8339 26.381 37.4198 26.3644 37.2406C26.2004 35.4691 25.9537 33.7053 25.3155 31.9384Z" fill="#9FA8DA"/>
<path d="M25.5231 31.9388C25.9539 33.7053 26.2006 35.4691 26.3646 37.2406C26.3812 37.4199 25.8754 37.8339 25.6536 37.8061C25.2978 37.7616 24.6731 37.4137 24.6878 37.2378C24.8357 35.4662 25.0907 33.7036 25.5231 31.9388Z" fill="#C5CAE9"/>
</g>
<defs>
<clipPath id="clip0_72_705">
<rect width="50" height="50" fill="white"/>
</clipPath>
</defs>
</svg>
