<svg width="25" height="25" viewBox="0 0 25 25" fill="none" xmlns="http://www.w3.org/2000/svg">
<rect width="25" height="25" fill="white"/>
<path fill-rule="evenodd" clip-rule="evenodd" d="M12.2397 4.6875C12.1449 4.6875 11.9115 4.71354 11.7876 4.96146L9.88549 8.76458C9.58445 9.36562 9.00424 9.78333 8.33341 9.87917L4.07508 10.4927C3.79383 10.5333 3.69799 10.7417 3.66883 10.8292C3.64278 10.9135 3.60112 11.1281 3.79487 11.3135L6.87403 14.2719C7.36466 14.7437 7.58757 15.424 7.47091 16.0896L6.74591 20.2667C6.70112 20.5281 6.86466 20.6802 6.93757 20.7323C7.01466 20.7906 7.22091 20.9062 7.47612 20.7729L11.2834 18.799C11.8834 18.4896 12.598 18.4896 13.1959 18.799L17.0022 20.7719C17.2584 20.9042 17.4647 20.7885 17.5428 20.7323C17.6157 20.6802 17.7792 20.5281 17.7344 20.2667L17.0074 16.0896C16.8907 15.424 17.1136 14.7437 17.6042 14.2719L20.6834 11.3135C20.8782 11.1281 20.8365 10.9125 20.8094 10.8292C20.7813 10.7417 20.6855 10.5333 20.4042 10.4927L16.1459 9.87917C15.4761 9.78333 14.8959 9.36562 14.5949 8.76354L12.6907 4.96146C12.5678 4.71354 12.3345 4.6875 12.2397 4.6875ZM7.23653 22.3958C6.80633 22.3958 6.37924 22.2604 6.01362 21.9937C5.38237 21.5312 5.07299 20.7677 5.20737 19.999L5.93237 15.8219C5.95945 15.6667 5.90633 15.5094 5.79174 15.399L2.71258 12.4406C2.14591 11.8979 1.94278 11.0958 2.18237 10.351C2.42403 9.59792 3.06362 9.05937 3.85216 8.94687L8.11049 8.33333C8.27508 8.31042 8.41674 8.20937 8.48758 8.06562L10.3907 4.26146C10.7417 3.56042 11.4501 3.125 12.2397 3.125C13.0292 3.125 13.7376 3.56042 14.0886 4.26146L15.9928 8.06458C16.0647 8.20937 16.2053 8.31042 16.3688 8.33333L20.6272 8.94687C21.4157 9.05937 22.0553 9.59792 22.2969 10.351C22.5365 11.0958 22.3324 11.8979 21.7657 12.4406L18.6865 15.399C18.5719 15.5094 18.5199 15.6667 18.5469 15.8208L19.273 19.999C19.4063 20.7687 19.097 21.5323 18.4647 21.9937C17.824 22.4635 16.9897 22.5271 16.2824 22.1583L12.4772 20.1865C12.3282 20.1094 12.1501 20.1094 12.0011 20.1865L8.19591 22.1594C7.89174 22.3177 7.56362 22.3958 7.23653 22.3958Z" fill="#FFC331"/>
</svg>
